<?xml version="1.0"?>
<svg xmlns="http://www.w3.org/2000/svg" id="outline" viewBox="0 0 512 512" width="512" height="512"><path d="M344,392H332.12891a1.95609,1.95609,0,0,1-1.39063-.5752A18.0016,18.0016,0,0,0,328,389.19281V376h8a7.9992,7.9992,0,0,0,7.76074-6.05957l8-32A7.99948,7.99948,0,0,0,344,328H304a7.9992,7.9992,0,0,0-7.76074,6.05957L293.75415,344H282.42188L260.4375,329.34375a7.99771,7.99771,0,0,0-8.875,0L229.57812,344h-7.33227l1.51489-6.05957A7.99948,7.99948,0,0,0,216,328H200V304h25.37622A24.038,24.038,0,0,0,248,320h16a24,24,0,0,0,0-48H248a24.038,24.038,0,0,0-22.62378,16H192a8.00008,8.00008,0,0,0-8,8v32h-8a7.9992,7.9992,0,0,0-7.76074,6.05957l-8,32A7.99948,7.99948,0,0,0,168,376h40a7.9992,7.9992,0,0,0,7.76074-6.05957L218.24585,360h11.33227l21.98438,14.65625a7.99891,7.99891,0,0,0,8.875,0L282.42188,360h7.33227l-1.51489,6.05957A7.99948,7.99948,0,0,0,296,376h16v11.217a18.0522,18.0522,0,0,0-2.00391.84058l-9.57421,4.78711A7.99967,7.99967,0,0,0,296,400h-9.37622A24.038,24.038,0,0,0,264,384H248a24,24,0,0,0,0,48h16a24.038,24.038,0,0,0,22.62378-16H296v8a8.00008,8.00008,0,0,0,8,8h40a8.00008,8.00008,0,0,0,8-8V400A8.00008,8.00008,0,0,0,344,392ZM248,288h16a8,8,0,0,1,0,16H248a8,8,0,0,1,0-16Zm-46.24609,72H178.24609l4-16h23.50782ZM256,358.38525,246.42188,352,256,345.61475,265.57812,352ZM310.24609,344h23.50782l-4,16H306.24609ZM264,416H248a8,8,0,0,1,0-16h16a8,8,0,0,1,0,16Zm72,0H312V404.94434l5.15234-2.57618a1.965,1.965,0,0,1,2.27246.37061A17.855,17.855,0,0,0,332.12891,408H336Z"/><rect x="200" y="240" width="16" height="16"/><rect x="232" y="240" width="48" height="16"/><rect x="296" y="240" width="16" height="16"/><path d="M424,224.401V208a32.03635,32.03635,0,0,0-32-32H368a8.00008,8.00008,0,0,0-8,8v24H152V184a8.00008,8.00008,0,0,0-8-8H120a32.03635,32.03635,0,0,0-32,32v16.401A80.11016,80.11016,0,0,0,16,304V496H32V424H88v16a32.03635,32.03635,0,0,0,32,32h24v24h16V472H352v24h16V472h24a32.03635,32.03635,0,0,0,32-32V424h56v72h16V304A80.11016,80.11016,0,0,0,424,224.401ZM392,192a16.01833,16.01833,0,0,1,16,16v59.17761l-5.873-5.03406A25.48864,25.48864,0,0,0,376,257.84888V192ZM376,310.09613l24.91406,29.897A81.47365,81.47365,0,0,0,408,354.922v57.37243A31.80747,31.80747,0,0,0,392,408H376ZM104,354.922a81.47365,81.47365,0,0,0,7.08594-14.92884L136,310.0965V408H120a31.80747,31.80747,0,0,0-16,4.29443ZM120,192h16v65.84888a25.48864,25.48864,0,0,0-26.12695,4.29467L104,267.17761V208A16.01833,16.01833,0,0,1,120,192ZM32,408V304a64.08155,64.08155,0,0,1,56-63.48218V280.892L58.794,305.92578l10.4121,12.14844L120.28516,274.292A9.5194,9.5194,0,0,1,136,281.519v.13819A9.53458,9.53458,0,0,1,133.794,287.751L97.85449,330.87842a8.00419,8.00419,0,0,0-1.44433,2.59179A66.04572,66.04572,0,0,1,70.51172,367.377l-2.9502,1.96729,8.877,13.31152,2.94922-1.9668A80.94615,80.94615,0,0,0,88,374.05072V408Zm360,48H120a16,16,0,0,1,0-32h24a8.00008,8.00008,0,0,0,8-8V224H360V416a8.00008,8.00008,0,0,0,8,8h24a16,16,0,0,1,0,32Zm88-48H424V374.0509a80.93134,80.93134,0,0,0,8.61133,6.63758l2.95019,1.96728,8.877-13.31152-2.95118-1.96778a66.04594,66.04594,0,0,1-25.89746-33.90625,8.00419,8.00419,0,0,0-1.44433-2.59179l-35.93946-43.12793A9.53228,9.53228,0,0,1,376,281.65723V281.519a9.5194,9.5194,0,0,1,15.71484-7.22705L442.794,318.07422l10.4121-12.14844L424,280.892V240.51782A64.08155,64.08155,0,0,1,480,304Z"/><path d="M128,144h17.43555a29.79805,29.79805,0,0,0,21.07031-50.86719L154.17676,80.8042l22.626-22.62695,12.62793,12.63232a29.06116,29.06116,0,0,0,31.76563,6.32471l.34375-.14209A29.76005,29.76005,0,0,0,240.001,49.43311L240,32h32V49.43555a29.79722,29.79722,0,0,0,50.86719,21.06982l12.3291-12.3291,22.627,22.62793L345.49512,93.13232A29.79745,29.79745,0,0,0,366.56445,144H384v16h16V136a8.00008,8.00008,0,0,0-8-8H366.56445a13.79732,13.79732,0,0,1-9.75586-23.55371L374.794,86.46094a8,8,0,0,0,0-11.31348L340.85352,41.20605a8.00063,8.00063,0,0,0-11.31446,0L311.55273,59.19189A13.797,13.797,0,0,1,288,49.43555V24a8.00008,8.00008,0,0,0-8-8H232a7.99955,7.99955,0,0,0-8,8l.001,25.43555a13.80567,13.80567,0,0,1-8.57813,12.772l-.34375.14209a13.10791,13.10791,0,0,1-14.332-2.85156L182.46191,41.207a8.00131,8.00131,0,0,0-5.65722-2.34424h-.001a8.0008,8.0008,0,0,0-5.65723,2.34326L137.20605,75.14746a8,8,0,0,0,0,11.31348l17.98633,17.98584A13.79792,13.79792,0,0,1,145.43555,128H120a8.00008,8.00008,0,0,0-8,8v24h16Z"/><path d="M294.39941,188.80518a48.00049,48.00049,0,1,0-76.79492.0039l12.791-9.61133a31.99975,31.99975,0,1,1,51.21094-.002Z"/></svg>
